<?xml version="1.0" standalone="no"?><!DOCTYPE svg PUBLIC "-//W3C//DTD SVG 1.1//EN" "http://www.w3.org/Graphics/SVG/1.1/DTD/svg11.dtd"><svg t="1711522509482" class="icon" viewBox="0 0 1024 1024" version="1.1" xmlns="http://www.w3.org/2000/svg" p-id="7569" xmlns:xlink="http://www.w3.org/1999/xlink" width="32" height="32"><path d="M512 1024C229.6832 1024 0 794.3168 0 512S229.6832 0 512 0s512 229.6832 512 512-229.6832 512-512 512z m0-960C265.0112 64 64 265.0112 64 512S265.0112 960 512 960 960 758.9888 960 512 758.9888 64 512 64z" p-id="7570"></path><path d="M363.1104 828.8256c-41.5744 0-82.944-12.8-116.1216-38.912-36.7616-28.9792-58.6752-69.8368-61.7472-114.9952-3.072-46.3872 14.0288-91.3408 48.128-126.464l94.3104-97.28a32.02048 32.02048 0 0 1 45.9776 44.544l-94.3104 97.1776c-21.4016 22.016-32.0512 49.5616-30.208 77.6192 1.7408 26.8288 15.0528 51.3024 37.4784 69.0176 49.664 39.1168 126.7712 32.8704 172.032-13.7216 32.1536-33.1776 46.2848-76.0832 38.8096-117.9648l-32.8704-183.7056c-10.9568-61.2352 9.1136-123.4944 54.8864-170.7008l0.512-0.512c67.4816-69.0176 182.6816-77.6192 257.1264-18.944 36.7616 28.9792 58.7776 69.8368 61.7472 114.9952 3.072 46.3872-14.0288 91.3408-48.128 126.464l-93.3888 96.256a32.02048 32.02048 0 0 1-45.9776-44.544l93.3888-96.256c21.4016-22.016 32.0512-49.5616 30.208-77.6192-1.8432-26.8288-15.1552-51.3024-37.4784-69.0176-49.5616-39.0144-126.7712-32.8704-172.032 13.7216l-0.4096 0.4096c-31.0272 32.256-44.6464 73.9328-37.4784 114.4832l32.8704 183.7056c11.1616 62.3616-9.216 125.6448-55.9104 173.7728-37.376 38.6048-89.6 58.4704-141.4144 58.4704z" p-id="7571"></path></svg>